<svg viewBox="0 0 425.98 64.8" xmlns="http://www.w3.org/2000/svg"><g id="svgGroup" stroke-linecap="round" fill-rule="evenodd" font-size="9pt" stroke="current" stroke-width="0.25mm" fill="current" style="stroke:current;stroke-width:0.25mm;"><path d="M 268.359 64.795 L 243.311 64.795 L 243.311 51.855 L 259.326 51.855 L 259.326 38.037 L 243.311 38.037 L 243.311 26.758 L 259.326 26.758 L 259.326 12.939 L 243.311 12.939 L 243.311 0 L 268.359 0 L 281.348 12.939 L 281.348 26.123 L 274.854 32.617 L 281.348 39.111 L 281.348 51.855 L 268.359 64.795 Z M 178.369 45.361 L 170.752 45.361 L 170.752 32.813 L 186.963 32.813 L 186.963 12.939 L 170.752 12.939 L 170.752 0 L 195.41 0 L 208.398 12.939 L 208.398 32.373 L 198.34 42.432 L 210.596 64.795 L 187.549 64.795 L 178.369 45.361 Z M 122.363 64.795 L 113.672 64.795 L 113.672 40.527 L 85.645 40.527 L 72.656 27.539 L 72.656 12.939 L 85.645 0 L 92.969 0 L 92.969 22.998 L 122.754 22.998 L 135.303 35.986 L 135.303 51.855 L 122.363 64.795 Z M 340.039 64.795 L 331.348 64.795 L 331.348 40.527 L 303.32 40.527 L 290.332 27.539 L 290.332 12.939 L 303.32 0 L 310.645 0 L 310.645 22.998 L 340.43 22.998 L 352.979 35.986 L 352.979 51.855 L 340.039 64.795 Z M 62.207 64.795 L 39.258 64.795 L 0 0 L 22.803 0 L 62.207 64.795 Z M 403.418 64.795 L 376.27 64.795 L 363.33 51.855 L 363.33 12.939 L 376.27 0 L 384.912 0 L 384.912 51.855 L 403.418 51.855 L 403.418 64.795 Z M 167.334 64.795 L 145.752 64.795 L 145.752 0 L 167.334 0 L 167.334 64.795 Z M 239.893 64.795 L 218.311 64.795 L 218.311 0 L 239.893 0 L 239.893 64.795 Z M 18.799 64.795 L 0 64.795 L 0 6.152 L 18.799 36.963 L 18.799 64.795 Z M 62.207 0 L 62.207 58.643 L 43.408 27.686 L 43.408 0 L 62.207 0 Z M 425.977 64.795 L 406.836 64.795 L 406.836 41.699 L 396.338 41.699 L 396.338 28.857 L 425.977 28.857 L 425.977 64.795 Z M 110.254 64.795 L 83.545 64.795 L 72.656 51.855 L 72.656 45.361 L 94.238 45.361 L 94.238 53.076 L 110.254 53.076 L 110.254 64.795 Z M 327.93 64.795 L 301.221 64.795 L 290.332 51.855 L 290.332 45.361 L 311.914 45.361 L 311.914 53.076 L 327.93 53.076 L 327.93 64.795 Z M 425.977 19.434 L 404.395 19.434 L 404.395 12.939 L 388.33 12.939 L 388.33 0 L 414.648 0 L 425.977 12.939 L 425.977 19.434 Z M 133.545 18.164 L 113.672 18.164 L 113.672 11.67 L 96.387 11.67 L 96.387 0 L 122.314 0 L 133.545 11.279 L 133.545 18.164 Z M 351.221 18.164 L 331.348 18.164 L 331.348 11.67 L 314.063 11.67 L 314.063 0 L 339.99 0 L 351.221 11.279 L 351.221 18.164 Z" vector-effect="non-scaling-stroke"/></g></svg>